{"title":"Toy Story 3 2010 R5 AC3 READNFO XViD - IMAGiNE","uid":5884989,"size":1518841411,"categoryP":"video","categoryS":"movies","magnet":"?xt=urn:btih:5d9fe0abebb7d83bfb32f56cf60002f58e00ba7b&amp;dn=Toy+Story+3+2010+R5+AC3+READNFO+XViD+-+IMAGiNE&amp;tr=udp%3A%2F%2Ftracker.openbittorrent.com%3A80&amp;tr=udp%3A%2F%2Fopen.demonii.com%3A1337&amp;tr=udp%3A%2F%2Ftracker.coppersurfer.tk%3A6969&amp;tr=udp%3A%2F%2Fexodus.desync.com%3A6969","seeders":0,"leechers":0,"uploader":"IwannaFan2","files":3,"time":1287029299,"description":"Filename:\nToy Story 3 2010 R5 AC3 READNFO XViD - IMAGiNE\n &lt;a href=&quot;\nhttp://www.imdb.com/title/tt1220634/&quot; rel=&quot;nofollow&quot; target=&quot;_NEW&quot;&gt;\nhttp://www.imdb.com/title/tt1220634/&lt;/a&gt;\n\nDETAILS:\n\nVideo\nID                               : 0\nFormat                           : MPEG-4 Visual\nFormat profile                   : Advanced Simple@L5\nFormat settings, BVOP            : Yes\nFormat settings, QPel            : No\nFormat settings, GMC             : No warppoints\nFormat settings, Matrix          : Default (H.263)\nCodec ID                         : DX50\nCodec ID/Hint                    : DivX 5\nDuration                         : 1h 38mn\nBit rate                         : 1 638 Kbps\nWidth                            : 720 pixels\nHeight                           : 400 pixels\nDisplay aspect ratio             : 16:9\nFrame rate                       : 25.000 fps\nColor space                      : YUV\nChroma subsampling               : 4:2:0\nBit depth                        : 8 bits\nScan type                        : Progressive\nBits/(Pixel*Frame)               : 0.227\nStream size                      : 1.13 GiB (81%)\nWriting library                  : XviD 1.1.2 (UTC 2006-11-01)\n\nAudio\nID                               : 1\nFormat                           : AC-3\nFormat/Info                      : Audio Coding 3\nMode extension                   : CM (complete main)\nCodec ID                         : 2000\nDuration                         : 1h 38mn\nBit rate mode                    : Constant\nBit rate                         : 384 Kbps\nChannel(s)                       : 6 channels\nChannel positions                : Front: L C R, Side: L R, LFE\nSampling rate                    : 48.0 KHz\nBit depth                        : 16 bits\nVideo delay                      : 116ms\nStream size                      : 270 MiB (19%)\nAlignment                        : Split accross interleaves\nInterleave, duration             : 40 ms (1.00 video frame)\nInterleave, preload duration     : 500 ms","torrent":{"xt":"urn:btih:5d9fe0abebb7d83bfb32f56cf60002f58e00ba7b","amp;dn":"Toy+Story+3+2010+R5+AC3+READNFO+XViD+-+IMAGiNE","amp;tr":["udp%3A%2F%2Ftracker.openbittorrent.com%3A80","udp%3A%2F%2Fopen.demonii.com%3A1337","udp%3A%2F%2Ftracker.coppersurfer.tk%3A6969","udp%3A%2F%2Fexodus.desync.com%3A6969"],"infoHash":"5d9fe0abebb7d83bfb32f56cf60002f58e00ba7b","infoHashBuffer":{"type":"Buffer","data":[93,159,224,171,235,183,216,59,251,50,245,108,246,0,2,245,142,0,186,123]},"announce":[],"urlList":[]}}